<svg width="2930" height="1045" viewBox="0 0 2930 1045" fill="none" xmlns="http://www.w3.org/2000/svg">
<g clip-path="url(#clip0_1_86)">
<path d="M987.5 721.5C961.833 721.5 937.667 716.833 915 707.5C892.667 698.167 873.167 685.333 856.5 669C839.833 652.333 826.667 633 817 611C807.667 588.667 803 564.667 803 539C803 513.333 807.833 489.5 817.5 467.5C827.167 445.5 840.5 426.333 857.5 410C874.833 393.333 895 380.5 918 371.5C941 362.167 965.667 357.5 992 357.5C1022.33 357.5 1049.83 363 1074.5 374C1099.5 385 1120.17 400.167 1136.5 419.5L1083 473C1071.67 458.333 1058.33 447.333 1043 440C1027.67 432.667 1010.33 429 991 429C970.333 429 951.833 433.667 935.5 443C919.167 452 906.333 464.833 897 481.5C888 497.833 883.5 517 883.5 539C883.5 561 888 580.333 897 597C906 613.667 918.333 626.667 934 636C949.667 645.333 967.667 650 988 650C1008.67 650 1026.17 646.167 1040.5 638.5C1055.17 630.5 1066.33 619.167 1074 604.5C1082 589.5 1086 571.333 1086 550L1138 585L980.5 582.5V516H1166V527.5C1166 569.833 1158.33 605.5 1143 634.5C1128 663.167 1107 684.833 1080 699.5C1053.33 714.167 1022.5 721.5 987.5 721.5ZM1216.58 716V353H1293.08V716H1216.58ZM1458.45 721C1436.12 721 1416.12 715.5 1398.45 704.5C1381.12 693.5 1367.28 678.5 1356.95 659.5C1346.95 640.5 1341.95 618.833 1341.95 594.5C1341.95 570.167 1346.95 548.5 1356.95 529.5C1367.28 510.5 1381.12 495.5 1398.45 484.5C1416.12 473.5 1436.12 468 1458.45 468C1474.78 468 1489.45 471.167 1502.45 477.5C1515.78 483.833 1526.62 492.667 1534.95 504C1543.28 515 1547.95 527.667 1548.95 542V647C1547.95 661.333 1543.28 674.167 1534.95 685.5C1526.95 696.5 1516.28 705.167 1502.95 711.5C1489.62 717.833 1474.78 721 1458.45 721ZM1473.95 652C1490.28 652 1503.45 646.667 1513.45 636C1523.45 625 1528.45 611.167 1528.45 594.5C1528.45 583.167 1526.12 573.167 1521.45 564.5C1517.12 555.833 1510.78 549.167 1502.45 544.5C1494.45 539.5 1485.12 537 1474.45 537C1463.78 537 1454.28 539.5 1445.95 544.5C1437.95 549.167 1431.45 555.833 1426.45 564.5C1421.78 573.167 1419.45 583.167 1419.45 594.5C1419.45 605.5 1421.78 615.333 1426.45 624C1431.12 632.667 1437.62 639.5 1445.95 644.5C1454.28 649.5 1463.62 652 1473.95 652ZM1525.45 716V650.5L1536.95 591.5L1525.45 532.5V473H1600.45V716H1525.45ZM1648.81 671L1770.81 517.5H1863.81L1741.81 671H1648.81ZM1648.81 716V671L1703.31 652H1860.81V716H1648.81ZM1657.81 537V473H1863.81V517.5L1809.81 537H1657.81ZM2029.66 721.5C2003.33 721.5 1979.83 716.167 1959.16 705.5C1938.83 694.5 1922.83 679.333 1911.16 660C1899.5 640.667 1893.66 618.833 1893.66 594.5C1893.66 570.167 1899.33 548.5 1910.66 529.5C1922.33 510.167 1938 495 1957.66 484C1977.33 473 1999.5 467.5 2024.16 467.5C2048.16 467.5 2069.33 472.667 2087.66 483C2106 493.333 2120.33 507.667 2130.66 526C2141.33 544.333 2146.66 565.333 2146.66 589C2146.66 593.333 2146.33 598 2145.66 603C2145.33 607.667 2144.5 613.167 2143.16 619.5L1933.66 620V567.5L2110.66 567L2077.66 589C2077.33 575 2075.16 563.5 2071.16 554.5C2067.16 545.167 2061.16 538.167 2053.16 533.5C2045.5 528.5 2036 526 2024.66 526C2012.66 526 2002.16 528.833 1993.16 534.5C1984.5 539.833 1977.66 547.5 1972.66 557.5C1968 567.5 1965.66 579.667 1965.66 594C1965.66 608.333 1968.16 620.667 1973.16 631C1978.5 641 1985.83 648.833 1995.16 654.5C2004.83 659.833 2016.16 662.5 2029.16 662.5C2041.16 662.5 2052 660.5 2061.66 656.5C2071.33 652.167 2079.83 645.833 2087.16 637.5L2129.16 679.5C2117.16 693.5 2102.66 704 2085.66 711C2068.66 718 2050 721.5 2029.66 721.5ZM2313.59 721.5C2287.26 721.5 2263.76 716.167 2243.09 705.5C2222.76 694.5 2206.76 679.333 2195.09 660C2183.42 640.667 2177.59 618.833 2177.59 594.5C2177.59 570.167 2183.26 548.5 2194.59 529.5C2206.26 510.167 2221.92 495 2241.59 484C2261.26 473 2283.42 467.5 2308.09 467.5C2332.09 467.5 2353.26 472.667 2371.59 483C2389.92 493.333 2404.26 507.667 2414.59 526C2425.26 544.333 2430.59 565.333 2430.59 589C2430.59 593.333 2430.26 598 2429.59 603C2429.26 607.667 2428.42 613.167 2427.09 619.5L2217.59 620V567.5L2394.59 567L2361.59 589C2361.26 575 2359.09 563.5 2355.09 554.5C2351.09 545.167 2345.09 538.167 2337.09 533.5C2329.42 528.5 2319.92 526 2308.59 526C2296.59 526 2286.09 528.833 2277.09 534.5C2268.42 539.833 2261.59 547.5 2256.59 557.5C2251.92 567.5 2249.59 579.667 2249.59 594C2249.59 608.333 2252.09 620.667 2257.09 631C2262.42 641 2269.76 648.833 2279.09 654.5C2288.76 659.833 2300.09 662.5 2313.09 662.5C2325.09 662.5 2335.92 660.5 2345.59 656.5C2355.26 652.167 2363.76 645.833 2371.09 637.5L2413.09 679.5C2401.09 693.5 2386.59 704 2369.59 711C2352.59 718 2333.92 721.5 2313.59 721.5ZM2638.02 716V577.5C2638.02 564.833 2634.02 554.667 2626.02 547C2618.35 539 2608.52 535 2596.52 535C2588.18 535 2580.85 536.833 2574.52 540.5C2568.18 543.833 2563.18 548.833 2559.52 555.5C2555.85 561.833 2554.02 569.167 2554.02 577.5L2524.52 563C2524.52 544 2528.68 527.333 2537.02 513C2545.35 498.667 2556.85 487.667 2571.52 480C2586.52 472 2603.35 468 2622.02 468C2640.02 468 2655.85 472.333 2669.52 481C2683.52 489.333 2694.52 500.5 2702.52 514.5C2710.52 528.5 2714.52 543.833 2714.52 560.5V716H2638.02ZM2477.52 716V473H2554.02V716H2477.52Z" fill="#0068FA"/>
<path d="M267.587 190.781C241.047 204.742 248.542 239.462 255.607 255.076L319.908 214.152C303.854 195.537 278.338 190.815 267.587 190.781Z" fill="#F1F7FF" stroke="black"/>
<path d="M229.088 326.616C215.982 321.799 210.317 314.404 209.122 311.308L232.365 283.039L313.663 222.724L401.003 198.741L464.383 206.191L443.086 228.847H427.01L347.657 283.039L343.05 331.719C310.523 332.025 242.194 331.433 229.088 326.616Z" fill="#F1F7FF" stroke="black"/>
<path d="M268.509 225.581C267.69 235.95 268.851 242.741 269.533 244.841L294.824 228.143L275.472 216.6C273.936 215.682 268.961 219.866 268.509 225.581Z" fill="#0068FA"/>
<path d="M239.123 427.955C217.99 430.568 194.856 432.14 188.747 432.242V420.505C205.212 392.746 253.663 352.809 270.353 340.29L310.797 469.288C294.66 461.287 253.663 437.004 239.123 427.955Z" fill="#B8D5FF"/>
<path d="M231.955 495.722L186.391 440.918L189.565 430.202L239.327 426.324L308.543 468.371L240.965 497.559L231.955 495.722Z" fill="#8BBBFF"/>
<path d="M186.902 440.306C181.987 450.348 171.202 462.656 167.346 466.228C166.199 469.085 171.578 479.121 173.079 481.128L240.965 497.252L186.902 440.306Z" fill="#76AFFF"/>
<path d="M341.207 277.936C336.292 290.019 337.18 317.329 338.238 329.473L569.846 408.158L563.088 373.867L428.649 241.604L438.888 226.092L425.987 220.683L415.031 231.296L409.297 229.868L341.207 277.936Z" fill="#A1C5FA"/>
<path d="M665.045 569.609L495.28 760.759L665.045 872.305V569.609Z" fill="#0056D8"/>
<path d="M228.782 324.166C220.263 320.737 212.297 313.416 210.659 311.818C203.532 312.797 206.017 342.876 207.382 351.925L269.022 341.618C268.305 338.42 262.243 328.228 260.933 317.124C259.355 303.755 277.008 283.718 285.507 274.363C252.905 295.754 233.867 316.784 228.782 324.166Z" fill="#9FC7FF"/>
<path d="M508.717 294.876L492.232 278.445L500.424 226.602L522.438 231.296C526.003 237.726 513.393 280.827 508.717 294.876Z" fill="#9FC7FF"/>
<path d="M221.818 340.495L214.036 348.353C208.384 341.985 209.804 334.168 210.862 330.8C216.924 332.269 220.692 337.876 221.818 340.495Z" fill="#0069F7"/>
<path fill-rule="evenodd" clip-rule="evenodd" d="M211.115 312.279C211.162 312.232 211.211 312.183 211.26 312.134L211.115 312.279Z" fill="#0069F7"/>
<path fill-rule="evenodd" clip-rule="evenodd" d="M211.264 312.13L211.287 312.107C211.457 311.937 211.638 311.757 211.829 311.566C225.38 298.027 292.074 231.397 338.851 219.866C342.909 218.865 330.736 232.568 325.996 236.087C327.477 235.086 328.916 234.109 330.321 233.155L330.33 233.148L330.336 233.145L330.339 233.143C357.257 214.858 371.524 205.168 421.787 206.803C485.338 209.753 557.635 256.598 623.755 299.441C641.369 310.854 658.545 321.982 675 331.922V309.266C659.417 299.826 644.273 290.301 629.448 280.977C528.244 217.326 441.909 163.027 332.298 208.975C326.837 211.264 321.318 213.802 315.737 216.6C308.863 220.046 301.895 223.886 294.822 228.142C283.074 235.212 271.039 243.429 258.678 252.889C254.901 255.779 251.093 258.786 247.253 261.912C232.058 274.282 216.368 288.513 200.111 304.775C191.817 315.287 192.227 339.474 197.858 348.863L120.041 414.383L151.577 403.361L212.193 350.088C208.097 341.209 202.097 321.267 210.862 312.532L210.982 312.411L211.115 312.279L211.26 312.134L211.264 312.13Z" fill="#0069F7"/>
<path fill-rule="evenodd" clip-rule="evenodd" d="M120.042 414.384C112.26 420.813 111.461 434.775 132.431 449.797L141.953 486.129C144.308 492.354 150.349 497.008 167.141 502.56C162.124 505.825 181.046 534.074 212.91 539.299L260.727 534.095L309.67 487.987L324.209 474.29L281.41 348.864C282.993 348.327 287.263 349.604 294.731 351.837L295.028 351.926C302.195 354.069 313.8 341.721 318.783 334.271L292.878 324.779L276.29 334.271C274.959 328.521 274.345 315.492 290.83 309.369C287.334 310.392 283.384 312.525 279.397 314.678C272.64 318.326 265.775 322.034 260.829 320.493L306.905 467.351L240.351 496.538L173.797 480.516C171.613 478.134 167.367 471.963 167.858 466.33C175.879 459.696 192.063 441.388 192.637 421.222L173.797 405.709L151.578 403.362L120.042 414.384ZM157.107 488.068C153.148 482.455 143.522 468.682 146.254 460.513C148.199 454.696 163.046 474.597 163.455 478.475C163.182 480.856 161.53 486.108 157.107 488.068Z" fill="#01348F"/>
<path d="M323.595 474.29L307.519 488.986L444.928 491.333L321.342 333.556L279.669 348.456L323.595 474.29Z" fill="#0357D6"/>
<path d="M307.521 308.655C297.896 308.145 292.264 308.791 290.319 309.676C273.424 314.778 273.424 331.719 275.267 337.026L293.288 326.617L318.579 334.067L316.531 337.026C322.019 357.56 351.515 403.209 363.938 422.957L440.424 488.476L446.977 612.983L588.891 494.191L572.713 407.546L337.112 328.964L307.521 308.655Z" fill="#458BF3"/>
<path d="M269.021 342.331C259.847 346.821 209.668 401.659 189.77 424.281L173.183 407.238L148.507 404.176L212.092 350.189L221.716 340.698L267.69 337.738L269.021 342.331Z" fill="#F1F7FF"/>
<path d="M258.679 208.027C251.798 220.028 255.812 242.935 258.679 252.888C254.901 255.779 251.093 258.786 247.254 261.912C226.892 204.026 258.127 183.499 276.29 180.472L304.294 194.723L332.298 208.974C326.837 211.263 321.318 213.801 315.737 216.599L279.055 195.882C275.13 194.929 265.559 196.025 258.679 208.027Z" fill="#0068FA"/>
<path d="M674.999 328.657V559.608L492.924 766.27L586.124 491.538L561.96 373.97L525.713 280.896C529.058 276.813 536.157 259.26 536.157 243.033L674.999 328.657Z" fill="#75ABF6"/>
<path d="M146.254 460.512C143.522 468.681 153.149 482.453 157.108 488.066C161.531 486.107 163.183 480.855 163.456 478.473C163.046 474.595 148.2 454.694 146.254 460.512Z" fill="#76AFFF"/>
<path d="M519.173 206.966C518.851 210.905 523.463 234.064 527.967 243.136L428.647 209.764L459.438 170.677H483.89C502.85 178.221 515.312 198.013 519.173 206.966Z" fill="#F1F7FF"/>
<path d="M475.749 192.719C457.482 198.026 436.328 227.112 428.035 240.991L561.86 374.275L528.275 280.487C556.433 222.621 513.941 157 482.916 157C443.142 157 419.161 206.769 412.062 229.663C423.427 221.295 466.636 165.378 481.79 170.778C499.893 177.227 511.79 194.148 515.477 201.802C515.169 205.17 518.139 223.54 522.439 231.296C526.004 237.726 513.395 280.827 508.719 294.876L492.234 278.446C522.132 217.519 481.483 191.054 475.749 192.719Z" fill="#0069F7"/>
<path d="M332.605 567.262C304.099 540.646 274.652 532.053 260.727 534.094L309.669 487.987C321.888 487.843 351.24 486.659 370.899 483.066L439.911 487.987C467.352 444.387 480.765 383.358 423.426 339.883C452.778 361.45 539.128 409.586 449.433 608.492L586.125 491.537L496.099 761.43L666.887 865.977V888.021L407.658 726.774L336.394 642.374L332.605 567.262Z" fill="#02358C"/>
<path d="M354.415 632.678V578.385L414.211 634.311L412.573 702.484L354.415 632.678Z" fill="#0155D4"/>
<path d="M248.847 504.6L281.408 492.659L260.725 520.418C255.892 521.071 223.284 524.364 207.584 525.929C195.051 520.622 185.57 510.383 182.396 505.926L248.847 504.6Z" fill="#DFECFF"/>
<line x1="668" y1="907" x2="668" y2="190" stroke="url(#paint0_linear_1_86)" stroke-width="20" stroke-linecap="round"/>
</g>
<defs>
<linearGradient id="paint0_linear_1_86" x1="678.5" y1="180" x2="678.5" y2="917" gradientUnits="userSpaceOnUse">
<stop stop-color="#0068FA"/>
<stop offset="1" stop-color="#02358C"/>
</linearGradient>
<clipPath id="clip0_1_86">
<rect width="2930" height="1045" fill="white"/>
</clipPath>
</defs>
</svg>
